<?xml version="1.0" encoding="UTF-8" standalone="no"?>
<!-- Created with Inkscape (http://www.inkscape.org/) -->

<svg
   xmlns:dc="http://purl.org/dc/elements/1.1/"
   xmlns:cc="http://creativecommons.org/ns#"
   xmlns:rdf="http://www.w3.org/1999/02/22-rdf-syntax-ns#"
   xmlns:svg="http://www.w3.org/2000/svg"
   xmlns="http://www.w3.org/2000/svg"
   xmlns:sodipodi="http://sodipodi.sourceforge.net/DTD/sodipodi-0.dtd"
   xmlns:inkscape="http://www.inkscape.org/namespaces/inkscape"
   width="310"
   height="257"
   id="svg2"
   version="1.1"
   inkscape:version="0.48.4 r9939"
   sodipodi:docname="Rackeembeddinggraph.svg">
  <defs
     id="defs4">
    <marker
       inkscape:stockid="Arrow1Lend"
       orient="auto"
       refY="0"
       refX="0"
       id="Arrow1Lend"
       style="overflow:visible">
      <path
         id="path4032"
         d="M 0,0 5,-5 -12.5,0 5,5 0,0 z"
         style="fill-rule:evenodd;stroke:#000000;stroke-width:1pt"
         transform="matrix(-0.8,0,0,-0.8,-10,0)"
         inkscape:connector-curvature="0" />
    </marker>
  </defs>
  <sodipodi:namedview
     id="base"
     pagecolor="#ffffff"
     bordercolor="#666666"
     borderopacity="1.0"
     inkscape:pageopacity="0.0"
     inkscape:pageshadow="2"
     inkscape:zoom="2.2516129"
     inkscape:cx="155"
     inkscape:cy="128.5"
     inkscape:document-units="px"
     inkscape:current-layer="layer1"
     showgrid="true"
     objecttolerance="10000"
     guidetolerance="10000"
     inkscape:window-width="1215"
     inkscape:window-height="1000"
     inkscape:window-x="65"
     inkscape:window-y="24"
     inkscape:window-maximized="1">
    <inkscape:grid
       type="xygrid"
       id="grid2985"
       empspacing="5"
       visible="true"
       enabled="true"
       snapvisiblegridlinesonly="true"
       spacingx="2px"
       spacingy="2px" />
  </sodipodi:namedview>
  <metadata
     id="metadata7">
    <rdf:RDF>
      <cc:Work
         rdf:about="">
        <dc:format>image/svg+xml</dc:format>
        <dc:type
           rdf:resource="http://purl.org/dc/dcmitype/StillImage" />
        <dc:title></dc:title>
      </cc:Work>
    </rdf:RDF>
  </metadata>
  <g
     inkscape:label="Layer 1"
     inkscape:groupmode="layer"
     id="layer1"
     transform="translate(0,-795.36218)">
    <path
       sodipodi:type="arc"
       style="fill:#000000;fill-opacity:1;stroke:#ff0000;stroke-width:0;stroke-miterlimit:4;stroke-opacity:1;stroke-dasharray:none;stroke-dashoffset:0"
       id="path2987"
       sodipodi:cx="130"
       sodipodi:cy="70"
       sodipodi:rx="10"
       sodipodi:ry="10"
       d="m 140,70 c 0,5.522847 -4.47715,10 -10,10 -5.52285,0 -10,-4.477153 -10,-10 0,-5.522847 4.47715,-10 10,-10 5.52285,0 10,4.477153 10,10 z"
       transform="translate(6,740.36218)" />
    <path
       transform="translate(-43.714286,781.50504)"
       d="m 140,70 c 0,5.522847 -4.47715,10 -10,10 -5.52285,0 -10,-4.477153 -10,-10 0,-5.522847 4.47715,-10 10,-10 5.52285,0 10,4.477153 10,10 z"
       sodipodi:ry="10"
       sodipodi:rx="10"
       sodipodi:cy="70"
       sodipodi:cx="130"
       id="path3757"
       style="fill:#000000;fill-opacity:1;stroke:#ff0000;stroke-width:0;stroke-miterlimit:4;stroke-opacity:1;stroke-dasharray:none;stroke-dashoffset:0"
       sodipodi:type="arc" />
    <path
       sodipodi:type="arc"
       style="fill:#000000;fill-opacity:1;stroke:#ff0000;stroke-width:0;stroke-miterlimit:4;stroke-opacity:1;stroke-dasharray:none;stroke-dashoffset:0"
       id="path3759"
       sodipodi:cx="130"
       sodipodi:cy="70"
       sodipodi:rx="10"
       sodipodi:ry="10"
       d="m 140,70 c 0,5.522847 -4.47715,10 -10,10 -5.52285,0 -10,-4.477153 -10,-10 0,-5.522847 4.47715,-10 10,-10 5.52285,0 10,4.477153 10,10 z"
       transform="translate(56.285714,779.50504)" />
    <path
       sodipodi:type="arc"
       style="fill:#000000;fill-opacity:1;stroke:#ff0000;stroke-width:0;stroke-miterlimit:4;stroke-opacity:1;stroke-dasharray:none;stroke-dashoffset:0"
       id="path3763"
       sodipodi:cx="130"
       sodipodi:cy="70"
       sodipodi:rx="10"
       sodipodi:ry="10"
       d="m 140,70 c 0,5.522847 -4.47715,10 -10,10 -5.52285,0 -10,-4.477153 -10,-10 0,-5.522847 4.47715,-10 10,-10 5.52285,0 10,4.477153 10,10 z"
       transform="translate(116.28571,821.50504)" />
    <path
       transform="translate(6.28571,821.50504)"
       d="m 140,70 c 0,5.522847 -4.47715,10 -10,10 -5.52285,0 -10,-4.477153 -10,-10 0,-5.522847 4.47715,-10 10,-10 5.52285,0 10,4.477153 10,10 z"
       sodipodi:ry="10"
       sodipodi:rx="10"
       sodipodi:cy="70"
       sodipodi:cx="130"
       id="path3765"
       style="fill:#000000;fill-opacity:1;stroke:#ff0000;stroke-width:0;stroke-miterlimit:4;stroke-opacity:1;stroke-dasharray:none;stroke-dashoffset:0"
       sodipodi:type="arc" />
    <path
       sodipodi:type="arc"
       style="fill:#000000;fill-opacity:1;stroke:#ff0000;stroke-width:0;stroke-miterlimit:4;stroke-opacity:1;stroke-dasharray:none;stroke-dashoffset:0"
       id="path3767"
       sodipodi:cx="130"
       sodipodi:cy="70"
       sodipodi:rx="10"
       sodipodi:ry="10"
       d="m 140,70 c 0,5.522847 -4.47715,10 -10,10 -5.52285,0 -10,-4.477153 -10,-10 0,-5.522847 4.47715,-10 10,-10 5.52285,0 10,4.477153 10,10 z"
       transform="translate(-73.71429,819.50504)" />
    <path
       transform="translate(-73.71429,879.50504)"
       d="m 140,70 c 0,5.522847 -4.47715,10 -10,10 -5.52285,0 -10,-4.477153 -10,-10 0,-5.522847 4.47715,-10 10,-10 5.52285,0 10,4.477153 10,10 z"
       sodipodi:ry="10"
       sodipodi:rx="10"
       sodipodi:cy="70"
       sodipodi:cx="130"
       id="path3769"
       style="fill:#000000;fill-opacity:1;stroke:#ff0000;stroke-width:0;stroke-miterlimit:4;stroke-opacity:1;stroke-dasharray:none;stroke-dashoffset:0"
       sodipodi:type="arc" />
    <path
       sodipodi:type="arc"
       style="fill:#000000;fill-opacity:1;stroke:#ff0000;stroke-width:0;stroke-miterlimit:4;stroke-opacity:1;stroke-dasharray:none;stroke-dashoffset:0"
       id="path3771"
       sodipodi:cx="130"
       sodipodi:cy="70"
       sodipodi:rx="10"
       sodipodi:ry="10"
       d="m 140,70 c 0,5.522847 -4.47715,10 -10,10 -5.52285,0 -10,-4.477153 -10,-10 0,-5.522847 4.47715,-10 10,-10 5.52285,0 10,4.477153 10,10 z"
       transform="translate(-13.71429,881.50504)" />
    <path
       sodipodi:type="arc"
       style="fill:#000000;fill-opacity:1;stroke:#ff0000;stroke-width:0;stroke-miterlimit:4;stroke-opacity:1;stroke-dasharray:none;stroke-dashoffset:0"
       id="path3775"
       sodipodi:cx="130"
       sodipodi:cy="70"
       sodipodi:rx="10"
       sodipodi:ry="10"
       d="m 140,70 c 0,5.522847 -4.47715,10 -10,10 -5.52285,0 -10,-4.477153 -10,-10 0,-5.522847 4.47715,-10 10,-10 5.52285,0 10,4.477153 10,10 z"
       transform="translate(116.28571,879.50504)" />
    <path
       transform="translate(166.28571,879.50504)"
       d="m 140,70 c 0,5.522847 -4.47715,10 -10,10 -5.52285,0 -10,-4.477153 -10,-10 0,-5.522847 4.47715,-10 10,-10 5.52285,0 10,4.477153 10,10 z"
       sodipodi:ry="10"
       sodipodi:rx="10"
       sodipodi:cy="70"
       sodipodi:cx="130"
       id="path3777"
       style="fill:#000000;fill-opacity:1;stroke:#ff0000;stroke-width:0;stroke-miterlimit:4;stroke-opacity:1;stroke-dasharray:none;stroke-dashoffset:0"
       sodipodi:type="arc" />
    <path
       sodipodi:type="arc"
       style="fill:#000000;fill-opacity:1;stroke:#ff0000;stroke-width:0;stroke-miterlimit:4;stroke-opacity:1;stroke-dasharray:none;stroke-dashoffset:0"
       id="path3779"
       sodipodi:cx="130"
       sodipodi:cy="70"
       sodipodi:rx="10"
       sodipodi:ry="10"
       d="m 140,70 c 0,5.522847 -4.47715,10 -10,10 -5.52285,0 -10,-4.477153 -10,-10 0,-5.522847 4.47715,-10 10,-10 5.52285,0 10,4.477153 10,10 z"
       transform="translate(146.28571,941.50504)" />
    <path
       transform="translate(96.28571,939.50504)"
       d="m 140,70 c 0,5.522847 -4.47715,10 -10,10 -5.52285,0 -10,-4.477153 -10,-10 0,-5.522847 4.47715,-10 10,-10 5.52285,0 10,4.477153 10,10 z"
       sodipodi:ry="10"
       sodipodi:rx="10"
       sodipodi:cy="70"
       sodipodi:cx="130"
       id="path3781"
       style="fill:#000000;fill-opacity:1;stroke:#ff0000;stroke-width:0;stroke-miterlimit:4;stroke-opacity:1;stroke-dasharray:none;stroke-dashoffset:0"
       sodipodi:type="arc" />
    <path
       sodipodi:type="arc"
       style="fill:#000000;fill-opacity:1;stroke:#ff0000;stroke-width:0;stroke-miterlimit:4;stroke-opacity:1;stroke-dasharray:none;stroke-dashoffset:0"
       id="path3783"
       sodipodi:cx="130"
       sodipodi:cy="70"
       sodipodi:rx="10"
       sodipodi:ry="10"
       d="m 140,70 c 0,5.522847 -4.47715,10 -10,10 -5.52285,0 -10,-4.477153 -10,-10 0,-5.522847 4.47715,-10 10,-10 5.52285,0 10,4.477153 10,10 z"
       transform="translate(26.28571,941.50504)" />
    <path
       transform="translate(-43.71429,941.50504)"
       d="m 140,70 c 0,5.522847 -4.47715,10 -10,10 -5.52285,0 -10,-4.477153 -10,-10 0,-5.522847 4.47715,-10 10,-10 5.52285,0 10,4.477153 10,10 z"
       sodipodi:ry="10"
       sodipodi:rx="10"
       sodipodi:cy="70"
       sodipodi:cx="130"
       id="path3785"
       style="fill:#000000;fill-opacity:1;stroke:#ff0000;stroke-width:0;stroke-miterlimit:4;stroke-opacity:1;stroke-dasharray:none;stroke-dashoffset:0"
       sodipodi:type="arc" />
    <path
       style="fill:none;stroke:#000000;stroke-width:1px;stroke-linecap:butt;stroke-linejoin:miter;stroke-opacity:1"
       d="m 136,810.36218 -50,40 -30,40 0,60 0,-60 30,-40 50,40 -20,60 -30,60.00002 30,-60.00002 20,-60 -50,-40 z"
       id="path3789"
       inkscape:connector-curvature="0" />
    <path
       style="fill:none;stroke:#000000;stroke-width:1px;stroke-linecap:butt;stroke-linejoin:miter;stroke-opacity:1"
       d="m 136,810.36218 50,40 0,40 0,60 -30,60.00002 30,-60.00002 40,60.00002 -40,-60.00002 0,-60 0,-40 0,40 0,-40 60,40 0,60 0,-60 50,60 -20,60.00002 20,-60.00002 -50,-60 -60,-40 z"
       id="path3791"
       inkscape:connector-curvature="0" />
    <path
       sodipodi:type="arc"
       style="fill:#000000;fill-opacity:1;stroke:#ff0000;stroke-width:0;stroke-miterlimit:4;stroke-opacity:1;stroke-dasharray:none;stroke-dashoffset:0"
       id="path3807"
       sodipodi:cx="130"
       sodipodi:cy="70"
       sodipodi:rx="10"
       sodipodi:ry="10"
       d="m 140,70 c 0,5.522847 -4.47715,10 -10,10 -5.52285,0 -10,-4.477153 -10,-10 0,-5.522847 4.47715,-10 10,-10 5.52285,0 10,4.477153 10,10 z"
       transform="translate(-113.42858,940.36218)" />
    <path
       transform="translate(-83.714295,940.36218)"
       d="m 140,70 c 0,5.522847 -4.47715,10 -10,10 -5.52285,0 -10,-4.477153 -10,-10 0,-5.522847 4.47715,-10 10,-10 5.52285,0 10,4.477153 10,10 z"
       sodipodi:ry="10"
       sodipodi:rx="10"
       sodipodi:cy="70"
       sodipodi:cx="130"
       id="path3809"
       style="fill:#000000;fill-opacity:1;stroke:#ff0000;stroke-width:0;stroke-miterlimit:4;stroke-opacity:1;stroke-dasharray:none;stroke-dashoffset:0"
       sodipodi:type="arc" />
    <path
       sodipodi:type="arc"
       style="fill:#000000;fill-opacity:1;stroke:#ff0000;stroke-width:0;stroke-miterlimit:4;stroke-opacity:1;stroke-dasharray:none;stroke-dashoffset:0"
       id="path3811"
       sodipodi:cx="130"
       sodipodi:cy="70"
       sodipodi:rx="10"
       sodipodi:ry="10"
       d="m 140,70 c 0,5.522847 -4.47715,10 -10,10 -5.52285,0 -10,-4.477153 -10,-10 0,-5.522847 4.47715,-10 10,-10 5.52285,0 10,4.477153 10,10 z"
       transform="translate(-5.428581,940.93361)" />
    <path
       transform="translate(65.428562,941.50504)"
       d="m 140,70 c 0,5.522847 -4.47715,10 -10,10 -5.52285,0 -10,-4.477153 -10,-10 0,-5.522847 4.47715,-10 10,-10 5.52285,0 10,4.477153 10,10 z"
       sodipodi:ry="10"
       sodipodi:rx="10"
       sodipodi:cy="70"
       sodipodi:cx="130"
       id="path3813"
       style="fill:#000000;fill-opacity:1;stroke:#ff0000;stroke-width:0;stroke-miterlimit:4;stroke-opacity:1;stroke-dasharray:none;stroke-dashoffset:0"
       sodipodi:type="arc" />
    <path
       style="fill:none;stroke:#000000;stroke-width:1px;stroke-linecap:butt;stroke-linejoin:miter;stroke-opacity:1"
       d="M 56,950.36218 16,1010.3622 z"
       id="path3815"
       inkscape:connector-curvature="0" />
    <path
       style="fill:none;stroke:#000000;stroke-width:1px;stroke-linecap:butt;stroke-linejoin:miter;stroke-opacity:1"
       d="M 56,950.36218 46,1010.3622 z"
       id="path3817"
       inkscape:connector-curvature="0" />
    <path
       style="fill:none;stroke:#000000;stroke-width:1px;stroke-linecap:butt;stroke-linejoin:miter;stroke-opacity:1"
       d="M 126,1010.3622 116,950.36218 z"
       id="path3819"
       inkscape:connector-curvature="0" />
    <path
       style="fill:none;stroke:#000000;stroke-width:1px;stroke-linecap:butt;stroke-linejoin:miter;stroke-opacity:1"
       d="M 196,1010.3622 186,950.36218 z"
       id="path3821"
       inkscape:connector-curvature="0" />
    <path
       transform="translate(56.28571,879.50504)"
       d="m 140,70 c 0,5.522847 -4.47715,10 -10,10 -5.52285,0 -10,-4.477153 -10,-10 0,-5.522847 4.47715,-10 10,-10 5.52285,0 10,4.477153 10,10 z"
       sodipodi:ry="10"
       sodipodi:rx="10"
       sodipodi:cy="70"
       sodipodi:cx="130"
       id="path3773"
       style="fill:#000000;fill-opacity:1;stroke:#ff0000;stroke-width:0;stroke-miterlimit:4;stroke-opacity:1;stroke-dasharray:none;stroke-dashoffset:0"
       sodipodi:type="arc" />
    <path
       transform="translate(56.285714,821.50504)"
       d="m 140,70 c 0,5.522847 -4.47715,10 -10,10 -5.52285,0 -10,-4.477153 -10,-10 0,-5.522847 4.47715,-10 10,-10 5.52285,0 10,4.477153 10,10 z"
       sodipodi:ry="10"
       sodipodi:rx="10"
       sodipodi:cy="70"
       sodipodi:cx="130"
       id="path3761"
       style="fill:#000000;fill-opacity:1;stroke:#000000;stroke-width:0;stroke-miterlimit:4;stroke-opacity:1;stroke-dasharray:none;stroke-dashoffset:0"
       sodipodi:type="arc" />
    <path
       style="fill:none;stroke:#000000;stroke-width:1px;stroke-linecap:butt;stroke-linejoin:miter;stroke-opacity:1"
       d="m 186,890.36218 0,60 z"
       id="path3835"
       inkscape:connector-curvature="0" />
    <path
       style="fill:none;stroke:#ff0000;stroke-width:0.96789533;stroke-linecap:butt;stroke-linejoin:miter;stroke-miterlimit:4;stroke-opacity:1;stroke-dasharray:none"
       d="M 94.446785,857.65137 128.38989,884.64605 94.446785,857.65137 z"
       id="path4513"
       inkscape:connector-curvature="0" />
    <path
       style="fill:none;stroke:#000000;stroke-width:1.5;stroke-linecap:butt;stroke-linejoin:miter;stroke-miterlimit:4;stroke-opacity:1;stroke-dasharray:none"
       d="m 74,1018.3622 0,10 60,0 0,-10 0,10 -60,0 z"
       id="path4520"
       inkscape:connector-curvature="0" />
    <text
       xml:space="preserve"
       style="font-size:20px;font-style:normal;font-variant:normal;font-weight:normal;font-stretch:normal;line-height:125%;letter-spacing:0px;word-spacing:0px;fill:#000000;fill-opacity:1;stroke:none;font-family:cmr10;-inkscape-font-specification:cmr10"
       x="98"
       y="1046.3622"
       id="text4522"
       sodipodi:linespacing="125%"><tspan
         sodipodi:role="line"
         id="tspan4524"
         x="98"
         y="1046.3622">S</tspan></text>
    <text
       xml:space="preserve"
       style="font-size:20px;font-style:normal;font-variant:normal;font-weight:normal;font-stretch:normal;line-height:125%;letter-spacing:0px;word-spacing:0px;fill:#000000;fill-opacity:1;stroke:none;font-family:cmr10;-inkscape-font-specification:cmr10"
       x="113.76504"
       y="864.60284"
       id="text4526"
       sodipodi:linespacing="125%"><tspan
         sodipodi:role="line"
         id="tspan4528"
         x="113.76504"
         y="864.60284">y</tspan></text>
  </g>
</svg>
